<svg width="80" height="80" viewBox="0 0 80 80" fill="none" xmlns="http://www.w3.org/2000/svg">
<circle opacity="0.15" cx="40" cy="40" r="40" fill="#FF9900"/>
<g clip-path="url(#clip0_5213_1021)">
<path d="M30.6666 36.0001C31.0202 36.0001 31.3593 36.1406 31.6094 36.3906C31.8594 36.6407 31.9999 36.9798 31.9999 37.3334C34.0948 37.3303 36.1292 38.0351 37.7733 39.3334H40.6666C42.4439 39.3334 44.0399 40.1067 45.1386 41.3334H49.3333C50.5936 41.3331 51.8282 41.69 52.894 42.3628C53.9597 43.0356 54.8129 43.9968 55.3546 45.1347C52.2013 49.2961 47.0959 52.0001 41.3333 52.0001C37.6133 52.0001 34.4666 51.1961 31.9199 49.7894C31.8266 50.0468 31.6562 50.2692 31.4319 50.4262C31.2076 50.5832 30.9404 50.6672 30.6666 50.6667H26.6666C26.313 50.6667 25.9738 50.5263 25.7238 50.2762C25.4737 50.0262 25.3333 49.687 25.3333 49.3334V37.3334C25.3333 36.9798 25.4737 36.6407 25.7238 36.3906C25.9738 36.1406 26.313 36.0001 26.6666 36.0001H30.6666ZM32.0013 40.0001L31.9999 46.6961L32.0599 46.7388C34.4533 48.4188 37.5706 49.3334 41.3333 49.3334C45.3386 49.3334 49.0652 47.7921 51.7799 45.1601L51.9573 44.9827L51.7973 44.8494C51.1677 44.3563 50.4045 44.0637 49.6066 44.0094L49.3333 44.0001H46.5186C46.6146 44.4294 46.6666 44.8747 46.6666 45.3334V46.6667H34.6666V44.0001L43.7199 43.9987L43.6746 43.8947C43.4191 43.3608 43.026 42.9045 42.5358 42.5727C42.0456 42.2409 41.4759 42.0456 40.8853 42.0067L40.6666 42.0001H36.7599C36.1403 41.3664 35.4003 40.863 34.5833 40.5195C33.7663 40.1761 32.8888 39.9994 32.0026 40.0001H32.0013ZM29.3333 38.6667H27.9999V48.0001H29.3333V38.6667ZM47.9999 30.6667C49.0608 30.6667 50.0782 31.0882 50.8283 31.8383C51.5785 32.5885 51.9999 33.6059 51.9999 34.6667C51.9999 35.7276 51.5785 36.745 50.8283 37.4952C50.0782 38.2453 49.0608 38.6667 47.9999 38.6667C46.9391 38.6667 45.9216 38.2453 45.1715 37.4952C44.4213 36.745 43.9999 35.7276 43.9999 34.6667C43.9999 33.6059 44.4213 32.5885 45.1715 31.8383C45.9216 31.0882 46.9391 30.6667 47.9999 30.6667ZM47.9999 33.3334C47.6463 33.3334 47.3072 33.4739 47.0571 33.7239C46.8071 33.974 46.6666 34.3131 46.6666 34.6667C46.6666 35.0204 46.8071 35.3595 47.0571 35.6096C47.3072 35.8596 47.6463 36.0001 47.9999 36.0001C48.3535 36.0001 48.6927 35.8596 48.9427 35.6096C49.1928 35.3595 49.3333 35.0204 49.3333 34.6667C49.3333 34.3131 49.1928 33.974 48.9427 33.7239C48.6927 33.4739 48.3535 33.3334 47.9999 33.3334ZM38.6666 26.6667C39.7275 26.6667 40.7449 27.0882 41.495 27.8383C42.2452 28.5885 42.6666 29.6059 42.6666 30.6667C42.6666 31.7276 42.2452 32.745 41.495 33.4952C40.7449 34.2453 39.7275 34.6667 38.6666 34.6667C37.6057 34.6667 36.5883 34.2453 35.8382 33.4952C35.088 32.745 34.6666 31.7276 34.6666 30.6667C34.6666 29.6059 35.088 28.5885 35.8382 27.8383C36.5883 27.0882 37.6057 26.6667 38.6666 26.6667ZM38.6666 29.3334C38.313 29.3334 37.9738 29.4739 37.7238 29.7239C37.4737 29.974 37.3333 30.3131 37.3333 30.6667C37.3333 31.0204 37.4737 31.3595 37.7238 31.6096C37.9738 31.8596 38.313 32.0001 38.6666 32.0001C39.0202 32.0001 39.3593 31.8596 39.6094 31.6096C39.8594 31.3595 39.9999 31.0204 39.9999 30.6667C39.9999 30.3131 39.8594 29.974 39.6094 29.7239C39.3593 29.4739 39.0202 29.3334 38.6666 29.3334Z" fill="#FF9900"/>
</g>
<defs>
<clipPath id="clip0_5213_1021">
<rect width="32" height="32" fill="white" transform="translate(24 24)"/>
</clipPath>
</defs>
</svg>
