<svg width="80" height="80" viewBox="0 0 80 80" fill="none" xmlns="http://www.w3.org/2000/svg">
<circle opacity="0.15" cx="40" cy="40" r="40" fill="#FF9900"/>
<g clip-path="url(#clip0_5213_1020)">
<path d="M31.3334 50.6668C32.4374 50.6668 33.3334 51.5628 33.3334 52.6668C33.3334 53.7708 32.4374 54.6668 31.3334 54.6668C30.2294 54.6668 29.3334 53.7708 29.3334 52.6668C29.3334 51.5628 30.2294 50.6668 31.3334 50.6668ZM48.6667 50.6668C49.7707 50.6668 50.6667 51.5628 50.6667 52.6668C50.6667 53.7708 49.7707 54.6668 48.6667 54.6668C47.5627 54.6668 46.6667 53.7708 46.6667 52.6668C46.6667 51.5628 47.5627 50.6668 48.6667 50.6668ZM26.8961 26.3428L31.9987 31.4468V46.6668H50.6667V49.3334H30.6667C29.9307 49.3334 29.3334 48.7361 29.3334 48.0001V32.5508L25.0081 28.2294L26.8947 26.3428H26.8961ZM45.3334 28.0001C46.0694 28.0001 46.6667 28.5974 46.6667 29.3334V32.0001H50.6574C51.4001 32.0001 52.0001 32.6081 52.0001 33.3268V44.0068C52.0001 44.7401 51.4001 45.3334 50.6574 45.3334H34.6761C33.9334 45.3334 33.3334 44.7254 33.3334 44.0068V33.3268C33.3334 32.5934 33.9334 32.0001 34.6761 32.0001H38.6654L38.6667 29.3334C38.6667 28.5974 39.2641 28.0001 40.0001 28.0001H45.3334ZM37.3334 34.6668H36.0001V42.6668H37.3334V34.6668ZM45.3334 34.6668H40.0001V42.6668H45.3334V34.6668ZM49.3334 34.6668H48.0001V42.6668H49.3334V34.6668ZM44.0001 30.6668H41.3334V32.0001H44.0001V30.6668Z" fill="#FF9900"/>
</g>
<defs>
<clipPath id="clip0_5213_1020">
<rect width="32" height="32" fill="white" transform="translate(24 24)"/>
</clipPath>
</defs>
</svg>
