<svg width="80" height="80" viewBox="0 0 80 80" fill="none" xmlns="http://www.w3.org/2000/svg">
<circle opacity="0.15" cx="40" cy="40" r="40" fill="#FF9900"/>
<g clip-path="url(#clip0_5213_1022)">
<path d="M30.6667 30.1386V42.3853C30.6667 43.2632 30.8834 44.1276 31.2977 44.9016C31.7119 45.6757 32.3109 46.3355 33.0413 46.8226L40 51.4626L46.9587 46.8226C47.6889 46.3357 48.2878 45.676 48.702 44.9022C49.1162 44.1284 49.3331 43.2643 49.3333 42.3866V30.1386L40 28.0666L30.6667 30.1386ZM29.044 27.7679L40 25.3333L50.956 27.7679C51.2521 27.8337 51.5169 27.9985 51.7067 28.2351C51.8965 28.4717 51.9999 28.7659 52 29.0693V42.3853C51.9999 43.7022 51.6747 44.9988 51.0532 46.1599C50.4317 47.321 49.5332 48.3108 48.4373 49.0413L40 54.6666L31.5627 49.0413C30.467 48.3109 29.5686 47.3214 28.9471 46.1605C28.3256 44.9997 28.0003 43.7033 28 42.3866V29.0693C28.0001 28.7659 28.1035 28.4717 28.2933 28.2351C28.4831 27.9985 28.7479 27.8337 29.044 27.7679ZM40 41.9999L36.0813 44.0599L36.8293 39.6973L33.66 36.6066L38.0413 35.9693L40 31.9999L41.96 35.9693L46.34 36.6066L43.1707 39.6973L43.9173 44.0599L40 41.9999Z" fill="#FF9900"/>
</g>
<defs>
<clipPath id="clip0_5213_1022">
<rect width="32" height="32" fill="white" transform="translate(24 24)"/>
</clipPath>
</defs>
</svg>
