<svg width="80" height="80" viewBox="0 0 80 80" fill="none" xmlns="http://www.w3.org/2000/svg">
<circle opacity="0.15" cx="40" cy="40" r="40" fill="#FF9900"/>
<g clip-path="url(#clip0_5213_1023)">
<path d="M29.3333 53.3333C29.3333 50.5043 30.4571 47.7912 32.4574 45.7908C34.4578 43.7904 37.1709 42.6666 39.9999 42.6666C42.8289 42.6666 45.542 43.7904 47.5424 45.7908C49.5428 47.7912 50.6666 50.5043 50.6666 53.3333H29.3333ZM41.3333 45.4439V50.6666H47.5453C47.0686 49.3218 46.2415 48.1287 45.1495 47.2105C44.0574 46.2924 42.7399 45.6825 41.3333 45.4439ZM38.6666 50.6666V45.4439C37.2599 45.6825 35.9425 46.2924 34.8504 47.2105C33.7583 48.1287 32.9312 49.3218 32.4546 50.6666H38.6666ZM39.9999 41.3333C35.5799 41.3333 31.9999 37.7533 31.9999 33.3333C31.9999 28.9133 35.5799 25.3333 39.9999 25.3333C44.4199 25.3333 47.9999 28.9133 47.9999 33.3333C47.9999 37.7533 44.4199 41.3333 39.9999 41.3333ZM39.9999 38.6666C42.9466 38.6666 45.3333 36.2799 45.3333 33.3333C45.3333 30.3866 42.9466 27.9999 39.9999 27.9999C37.0533 27.9999 34.6666 30.3866 34.6666 33.3333C34.6666 36.2799 37.0533 38.6666 39.9999 38.6666Z" fill="#FF9900"/>
</g>
<defs>
<clipPath id="clip0_5213_1023">
<rect width="32" height="32" fill="white" transform="translate(24 24)"/>
</clipPath>
</defs>
</svg>
