<svg width="25" height="25" viewBox="0 0 25 25" fill="none" xmlns="http://www.w3.org/2000/svg">
<g clip-path="url(#clip0_7_239)">
<path d="M12.501 4.71769C14.9478 2.52081 18.7291 2.59373 21.0864 4.95519C23.4426 7.31769 23.5239 11.0802 21.3322 13.5344L12.4989 22.3802L3.66763 13.5344C1.47597 11.0802 1.55826 7.31144 3.91347 4.95519C6.27284 2.59685 10.0468 2.51769 12.501 4.71769ZM19.6114 6.42706C18.0489 4.86248 15.5281 4.79894 13.8926 6.26769L12.502 7.5156L11.1103 6.26873C9.46972 4.7979 6.95409 4.86248 5.38743 6.42915C3.83534 7.98123 3.75722 10.4656 5.18743 12.1073L12.4999 19.4312L19.8124 12.1083C21.2437 10.4656 21.1656 7.98435 19.6114 6.42706Z" fill="#1074EB"/>
</g>
<defs>
<clipPath id="clip0_7_239">
<rect width="25" height="25" fill="white"/>
</clipPath>
</defs>
</svg>
