<svg width="37" height="37" viewBox="0 0 37 37" fill="none" xmlns="http://www.w3.org/2000/svg">
<rect width="37" height="37" rx="3" fill="#1074EB"/>
<g clip-path="url(#clip0_5063_481)">
<path d="M10.8333 28.0833C10.8333 26.05 11.641 24.1 13.0788 22.6622C14.5165 21.2244 16.4666 20.4167 18.4999 20.4167C20.5332 20.4167 22.4833 21.2244 23.9211 22.6622C25.3589 24.1 26.1666 26.05 26.1666 28.0833H24.2499C24.2499 26.5583 23.6441 25.0958 22.5658 24.0175C21.4874 22.9391 20.0249 22.3333 18.4999 22.3333C16.9749 22.3333 15.5124 22.9391 14.4341 24.0175C13.3557 25.0958 12.7499 26.5583 12.7499 28.0833H10.8333ZM18.4999 19.4583C15.323 19.4583 12.7499 16.8852 12.7499 13.7083C12.7499 10.5315 15.323 7.95833 18.4999 7.95833C21.6768 7.95833 24.2499 10.5315 24.2499 13.7083C24.2499 16.8852 21.6768 19.4583 18.4999 19.4583ZM18.4999 17.5417C20.6178 17.5417 22.3333 15.8262 22.3333 13.7083C22.3333 11.5904 20.6178 9.87499 18.4999 9.87499C16.382 9.87499 14.6666 11.5904 14.6666 13.7083C14.6666 15.8262 16.382 17.5417 18.4999 17.5417Z" fill="white"/>
</g>
<defs>
<clipPath id="clip0_5063_481">
<rect width="23" height="23" fill="white" transform="translate(7 7)"/>
</clipPath>
</defs>
</svg>
