<svg width="25" height="25" viewBox="0 0 25 25" fill="none" xmlns="http://www.w3.org/2000/svg">
<g clip-path="url(#clip0_5063_489)">
<path d="M12.501 4.7177C14.9478 2.52083 18.7291 2.59374 21.0864 4.9552C23.4426 7.3177 23.5239 11.0802 21.3322 13.5344L12.4989 22.3802L3.66763 13.5344C1.47597 11.0802 1.55826 7.31145 3.91347 4.9552C6.27284 2.59687 10.0468 2.5177 12.501 4.7177ZM19.6114 6.42708C18.0489 4.86249 15.5281 4.79895 13.8926 6.2677L12.502 7.51562L11.1103 6.26874C9.46972 4.79791 6.95409 4.86249 5.38743 6.42916C3.83534 7.98124 3.75722 10.4656 5.18743 12.1073L12.4999 19.4312L19.8124 12.1083C21.2437 10.4656 21.1656 7.98437 19.6114 6.42708Z" fill="#383838"/>
</g>
<defs>
<clipPath id="clip0_5063_489">
<rect width="25" height="25" fill="white"/>
</clipPath>
</defs>
</svg>
