<svg width="58" height="37" viewBox="0 0 58 37" fill="none" xmlns="http://www.w3.org/2000/svg">
<path d="M54.72 0H3C1.34315 0 0 1.34315 0 3V34C0 35.6569 1.34315 37 3 37H54.72C56.3769 37 57.72 35.6569 57.72 34V3C57.72 1.34315 56.3769 0 54.72 0Z" fill="white"/>
<path d="M51.0599 18.5008C51.0599 25.8368 45.114 31.7838 37.7783 31.7838C30.4435 31.7838 24.4968 25.8371 24.4968 18.5008C24.4968 11.1643 30.4434 5.21704 37.7783 5.21704C45.1142 5.21704 51.0599 11.1642 51.0599 18.5008Z" fill="#D9222A"/>
<path d="M27.5182 26.9353C27.1504 26.4891 26.8124 26.0192 26.5064 25.5285H31.2136C31.4969 25.0755 31.7525 24.6057 31.979 24.1216H25.7414C25.5272 23.6641 25.3395 23.1947 25.1792 22.7156H32.5405C32.9834 21.3908 33.2234 19.974 33.2234 18.5004C33.2234 17.535 33.1204 16.594 32.9252 15.6875H24.7956C24.898 15.2118 25.0267 14.7423 25.181 14.2808H32.5396C32.3789 13.8018 32.1914 13.3324 31.9778 12.8745H25.743C25.9696 12.3908 26.2252 11.9211 26.508 11.4679H31.2122C30.9055 10.9781 30.5676 10.5088 30.2006 10.0625H27.5199C27.9321 9.56208 28.38 9.09218 28.8602 8.65654C26.503 6.5192 23.374 5.2168 19.9417 5.2168C12.6061 5.21687 6.65942 11.164 6.65942 18.5005C6.65942 25.8365 12.6059 31.7835 19.9417 31.7835C23.3744 31.7835 26.503 30.4814 28.8602 28.3444C29.3412 27.9081 29.7897 27.4371 30.2021 26.9356H27.5182" fill="#0097D0"/>
<path d="M46.4831 21.3771C46.4832 21.1404 46.6752 20.9485 46.912 20.9483C47.1491 20.9483 47.3409 21.1407 47.3409 21.3771C47.3413 21.614 47.1497 21.8064 46.9128 21.8069C46.6759 21.8073 46.4835 21.6156 46.4831 21.3788V21.3771ZM46.912 21.7037C47.0922 21.7035 47.2381 21.5573 47.2382 21.3771C47.238 21.197 47.092 21.0512 46.912 21.0512C46.7319 21.0512 46.5859 21.1971 46.5858 21.3771C46.5859 21.5573 46.7318 21.7035 46.912 21.7037ZM46.8541 21.5656H46.7661V21.1894H46.9252C46.9585 21.1894 46.9924 21.1894 47.0217 21.2079C47.052 21.2286 47.0695 21.2647 47.0695 21.302C47.0695 21.3449 47.0446 21.3845 47.0042 21.3994L47.0732 21.5656H46.9758L46.9188 21.417H46.8541V21.5656ZM46.8541 21.3519H46.9027C46.9207 21.3519 46.94 21.3532 46.9564 21.3448C46.9705 21.3348 46.9787 21.3185 46.9783 21.3012C46.9779 21.286 46.9701 21.2719 46.9573 21.2633C46.9416 21.2537 46.9172 21.2562 46.9009 21.2562H46.8541V21.3519ZM29.0859 21.6741C28.5186 21.8245 27.9695 21.8982 27.3895 21.897C25.5382 21.8951 24.5741 21.0519 24.5741 19.4396C24.5741 17.5563 25.801 16.1702 27.4672 16.1702C28.8303 16.1702 29.7001 16.9471 29.7001 18.164C29.7001 18.5685 29.6409 18.961 29.4974 19.5183H26.2052C26.0881 20.3048 26.6626 20.6511 27.6414 20.6511C28.2279 20.6511 28.7579 20.5456 29.3456 20.3094L29.0859 21.6741ZM28.2007 18.407C28.2007 18.2883 28.3835 17.4426 27.4312 17.4243C26.9051 17.4243 26.5281 17.7743 26.3751 18.407H28.2007ZM30.2015 18.0373C30.2015 18.7335 30.5928 19.2139 31.4835 19.5725C32.1646 19.8513 32.2715 19.9319 32.2715 20.1802C32.2715 20.5255 31.9707 20.6841 31.3031 20.6797C30.8012 20.6764 30.3435 20.6153 29.8036 20.4654L29.5641 21.7342C30.0444 21.8464 30.7183 21.8832 31.3145 21.897C33.0923 21.897 33.9134 21.3146 33.9134 20.0566C33.9134 19.3006 33.5709 18.855 32.7263 18.5238C32.0206 18.2421 31.9379 18.1806 31.9379 17.9257C31.9379 17.6259 32.2179 17.4743 32.7627 17.4743C33.0935 17.4743 33.5459 17.5051 33.9754 17.5565L34.2159 16.2803C33.7784 16.2193 33.1148 16.1706 32.731 16.1706C30.8471 16.1706 30.1956 17.0182 30.2015 18.0373ZM23.6716 21.8061H22.2903L22.3236 21.2274C21.9021 21.6831 21.3412 21.8959 20.5803 21.8959C19.6793 21.8959 19.0617 21.2798 19.0617 20.3945C19.0617 19.0475 20.1344 18.2711 21.9795 18.2711C22.1691 18.2711 22.4099 18.2852 22.658 18.3127C22.7093 18.1326 22.7229 18.0555 22.7229 17.9569C22.7229 17.5881 22.433 17.4527 21.6566 17.4527C20.8914 17.4559 20.3749 17.5692 19.8957 17.6979L20.1313 16.4624C20.9601 16.2515 21.5025 16.1704 22.1167 16.1704C23.5452 16.1704 24.2994 16.7303 24.2994 17.783C24.3117 18.0642 24.2136 18.6274 24.1649 18.8748C24.1085 19.2337 23.7126 21.3145 23.6716 21.8061ZM22.4589 19.3495C22.2844 19.3314 22.2079 19.3264 22.088 19.3264C21.1467 19.3264 20.6687 19.6066 20.6687 20.1601C20.6687 20.5076 20.9021 20.7251 21.2648 20.7251C21.9422 20.7251 22.4309 20.1587 22.4589 19.3495ZM36.8231 21.7188C36.3702 21.8427 36.0168 21.897 35.635 21.897C34.7889 21.897 34.3274 21.4644 34.3274 20.6942C34.3006 20.483 34.5075 19.5058 34.554 19.2337C34.6008 18.9604 35.3337 14.9792 35.3337 14.9792H36.9772L36.729 16.2964H37.5719L37.3428 17.641H36.4963C36.4963 17.641 36.0313 19.9742 36.0313 20.1522C36.0313 20.4353 36.2029 20.5577 36.5962 20.5577C36.7842 20.5577 36.9298 20.5407 37.0423 20.5065L36.8231 21.7188ZM44.9978 18.5836C44.9978 19.825 44.4887 20.5601 43.684 20.5601C43.0979 20.5684 42.7422 20.0773 42.7422 19.341C42.7422 18.4683 43.2609 17.4826 44.0943 17.4826C44.7672 17.4826 44.9978 18.0164 44.9978 18.5836ZM46.7722 18.6182C46.7722 17.2433 45.8688 16.1703 44.1679 16.1703C42.2106 16.1703 40.9452 17.4747 40.9452 19.3965C40.9452 20.7714 41.6913 21.8971 43.5462 21.8971C45.4174 21.897 46.7723 20.8971 46.7722 18.6182ZM38.2874 16.2959C38.0786 18 37.7089 19.7276 37.4199 21.4352L37.3499 21.8067H39.0101C39.6086 18.5093 39.8093 17.5699 41.063 17.9008L41.666 16.3403C40.7917 16.0192 40.2285 16.4775 39.7192 17.1289C39.7651 16.8358 39.8518 16.553 39.8308 16.2959H38.2874ZM18.2881 21.8066H16.6352L17.6175 16.6297L15.355 21.8066H13.8481L13.5725 16.6596L12.5868 21.8066H11.0867L12.3641 15.0726H14.9482L15.0848 19.2414L16.9034 15.0726H19.5914L18.2881 21.8066" fill="white"/>
</svg>
