<svg width="59" height="37" viewBox="0 0 59 37" fill="none" xmlns="http://www.w3.org/2000/svg">
<path fill-rule="evenodd" clip-rule="evenodd" d="M0 34C0 35.6569 1.34315 37 3 37H56C57.6569 37 59 35.6569 59 34V3C59 1.34315 57.6569 0 56 0H3C1.34315 0 0 1.34315 0 3V34Z" fill="white"/>
<path fill-rule="evenodd" clip-rule="evenodd" d="M29.6071 28.0801C31.9722 30.1588 35.1526 31.4255 38.5959 31.4255C46.0076 31.4255 51.9999 25.647 51.9999 18.4997C51.9999 11.3783 46.0079 5.57446 38.5959 5.57446C35.1526 5.57446 31.9725 6.84173 29.6071 8.91988C26.8997 11.3019 25.1914 14.6982 25.1914 18.4997C25.1914 22.3021 26.8997 25.7233 29.6071 28.0801Z" fill="#E9B040"/>
<path fill-rule="evenodd" clip-rule="evenodd" d="M33.7296 17.1311C33.6764 16.6712 33.5974 16.2144 33.4931 15.7627H25.2931C25.4 15.3002 25.5316 14.8434 25.6874 14.394H33.099C32.9379 13.9295 32.7537 13.4728 32.5471 13.0253H26.2391C26.4817 12.5585 26.7447 12.1019 27.0276 11.6567H31.7583C31.4646 11.1689 31.1214 10.7106 30.7336 10.2883H28.0525C28.4469 9.80659 28.9199 9.35046 29.3929 8.91988C27.0276 6.84147 23.8734 5.57446 20.4041 5.57446C12.9925 5.57446 7 11.3783 7 18.4997C7 25.6467 12.9925 31.4255 20.4041 31.4255C23.8734 31.4255 27.0273 30.1585 29.3929 28.0801C29.8657 27.6493 30.3393 27.1934 30.7596 26.7117H28.0523C27.6813 26.2767 27.339 25.8196 27.0273 25.3433H31.7583C32.0521 24.9042 32.3156 24.4469 32.5471 23.9744H26.2391C26.0236 23.5307 25.8392 23.0735 25.6871 22.606H33.0987C33.2543 22.1565 33.386 21.6996 33.4931 21.2371C33.5983 20.7812 33.6766 20.3245 33.7296 19.8687C33.8348 18.9589 33.8348 18.0408 33.7296 17.1311Z" fill="#CC2131"/>
<path fill-rule="evenodd" clip-rule="evenodd" d="M38.5601 15.4737L38.318 16.8741C37.781 16.6242 37.4055 16.5241 37.0027 16.5241C35.8755 16.5241 35.0973 17.5246 35.0973 18.9499C35.0973 19.9255 35.6342 20.5252 36.4925 20.5252C36.8686 20.5252 37.2714 20.4257 37.7545 20.2001L37.4864 21.6759C36.9495 21.8009 36.6008 21.8511 36.1712 21.8511C34.5871 21.8511 33.594 20.8004 33.594 19.0749C33.594 16.7492 34.9628 15.1489 36.9224 15.1489C37.191 15.1489 37.4058 15.1739 37.5938 15.1988L38.2108 15.3488C38.3989 15.4236 38.4256 15.4236 38.5601 15.4737ZM33.8088 16.449C33.755 16.4241 33.7014 16.4241 33.6476 16.4241C33.1647 16.4241 32.8958 16.6491 32.4397 17.2743L32.5739 16.474H31.2051L30.3189 21.7507H31.7957C32.3326 18.5248 32.4665 17.9744 33.1915 17.9744H33.2989C33.4331 17.3492 33.5943 16.8741 33.8627 16.4487H33.8088V16.449ZM25.2452 21.6756C24.8424 21.8006 24.5205 21.8508 24.1712 21.8508C23.4195 21.8508 22.9902 21.4506 22.9902 20.7001C22.9902 20.5504 23.017 20.4 23.0437 20.2253L23.1241 19.6999L23.2047 19.2997L23.849 15.6988H25.3255L25.1646 16.474H25.9163L25.7015 17.7743H24.9501L24.5473 19.9501C24.5473 20.0502 24.5205 20.1253 24.5205 20.1752C24.5205 20.4504 24.6814 20.5754 25.0307 20.5754C25.2187 20.5754 25.3261 20.5504 25.4335 20.5252L25.2452 21.6756ZM19.5273 18.1496C19.5273 18.7995 19.8763 19.2748 20.6548 19.5998C21.2721 19.875 21.3528 19.9501 21.3528 20.2001C21.3528 20.5252 21.0844 20.6754 20.4936 20.6754C20.064 20.6754 19.6615 20.6003 19.1781 20.4504L18.9633 21.6756H19.0439L19.3126 21.7258C19.4343 21.7602 19.561 21.777 19.6883 21.7757C20.0373 21.8006 20.3327 21.8256 20.5204 21.8256C22.0775 21.8256 22.8022 21.2757 22.8022 20.0751C22.8022 19.3501 22.507 18.925 21.7553 18.5994C21.1377 18.3497 21.0574 18.2745 21.0574 18.0495C21.0574 17.7494 21.2989 17.5994 21.7821 17.5994C22.0775 17.5994 22.48 17.6493 22.8557 17.6995L23.0705 16.474C22.6948 16.4241 22.104 16.3739 21.7553 16.3739C20.0911 16.3739 19.5273 17.1743 19.5273 18.1496ZM49.9154 21.7507H48.4928L48.5728 21.2256C48.17 21.6257 47.7405 21.8004 47.2035 21.8004C46.1301 21.8004 45.4054 20.9504 45.4054 19.6251C45.4054 17.8744 46.5059 16.3989 47.8211 16.3989C48.4119 16.3989 48.8415 16.6239 49.2437 17.1241L49.5659 15.2734H51.0426L49.9154 21.7507ZM47.7137 20.5C48.4119 20.5 48.8947 19.775 48.8947 18.7249C48.8947 18.0745 48.6267 17.6995 48.1165 17.6995C47.4456 17.6995 46.9619 18.4245 46.9619 19.4749C46.9619 20.1502 47.2035 20.5 47.7137 20.5ZM29.7817 21.6257C29.2718 21.7754 28.7886 21.8508 28.2516 21.8508C26.5872 21.8508 25.7283 21.0252 25.7283 19.4998C25.7283 17.6745 26.829 16.349 28.3323 16.349C29.5404 16.349 30.3186 17.0992 30.3186 18.2746C30.3186 18.6498 30.2651 19.025 30.158 19.5749H27.2051C27.178 19.65 27.178 19.675 27.178 19.7251C27.178 20.3254 27.6076 20.6502 28.4935 20.6502C29.0037 20.6502 29.4868 20.5502 30.0238 20.3251L29.7817 21.6257ZM28.9499 18.4993V18.2244C28.9499 17.7993 28.708 17.5493 28.2519 17.5493C27.7959 17.5493 27.4466 17.8993 27.3124 18.4993H28.9499ZM13.8901 21.7507H12.4137L13.2725 16.7741L11.3665 21.7507H10.3467L10.2393 16.799L9.32658 21.7507H7.95752L9.1118 15.2734H11.2323L11.313 19.2748L12.7359 15.2734H15.0444L13.8901 21.7507ZM17.5678 19.3998C17.4065 19.3748 17.3262 19.3748 17.2188 19.3748C16.3867 19.3748 15.9571 19.65 15.9571 20.1752C15.9571 20.5003 16.1716 20.7256 16.4938 20.7256C17.1114 20.7256 17.541 20.1752 17.5678 19.3998ZM18.6414 21.7507H17.4065L17.4336 21.2003C17.0578 21.626 16.5744 21.8253 15.8765 21.8253C15.0712 21.8253 14.5342 21.2505 14.5342 20.4C14.5342 19.1248 15.474 18.3743 17.1382 18.3743C17.2991 18.3743 17.5139 18.3743 17.7287 18.3993C17.7823 18.2493 17.7823 18.1745 17.7823 18.0745C17.7823 17.7244 17.5407 17.5992 16.8428 17.5992C16.4132 17.5992 15.9301 17.6491 15.6079 17.7491L15.3931 17.799L15.2589 17.8239L15.4737 16.6486C16.2252 16.4485 16.7083 16.3734 17.2453 16.3734C18.5337 16.3734 19.2049 16.8986 19.2049 17.899C19.2049 18.1742 19.1778 18.3741 19.0704 18.9494L18.7753 20.8251L18.7217 21.1502L18.6947 21.4249L18.6679 21.6L18.6414 21.7507ZM40.976 19.3998C40.8154 19.3748 40.7345 19.3748 40.6271 19.3748C39.7947 19.3748 39.3651 19.65 39.3651 20.1752C39.3651 20.5003 39.5799 20.7256 39.9021 20.7256C40.4926 20.7256 40.9493 20.1752 40.976 19.3998ZM42.0497 21.7507H40.8151L40.8419 21.2003C40.4658 21.626 39.9562 21.8253 39.2845 21.8253C38.4795 21.8253 37.9157 21.2505 37.9157 20.4C37.9157 19.1248 38.8823 18.3743 40.5462 18.3743C40.7068 18.3743 40.9222 18.3743 41.1364 18.3993C41.1903 18.2493 41.1903 18.1745 41.1903 18.0745C41.1903 17.7244 40.9487 17.5992 40.2505 17.5992C39.8209 17.5992 39.3381 17.6491 39.0159 17.7491L38.8011 17.799L38.6669 17.8239L38.8817 16.6486C39.6329 16.4485 40.1163 16.3734 40.6533 16.3734C41.9417 16.3734 42.6129 16.8986 42.6129 17.899C42.6129 18.1742 42.5861 18.3741 42.4787 18.9494L42.1833 20.8251L42.1297 21.1502L42.0759 21.4249L42.0491 21.6V21.7507H42.0497ZM46.023 16.449C45.9957 16.4241 45.9424 16.4241 45.8883 16.4241C45.4054 16.4241 45.11 16.6491 44.6537 17.2743L44.7878 16.474H43.4458L42.5328 21.7507H44.0361C44.5463 18.5248 44.7075 17.9744 45.4054 17.9744H45.5128C45.647 17.3492 45.835 16.8741 46.0766 16.4487H46.023V16.449Z" fill="white"/>
</svg>
