<svg width="19" height="19" viewBox="0 0 19 19" fill="none" xmlns="http://www.w3.org/2000/svg">
<g clip-path="url(#clip0_5216_268)">
<path d="M3.16675 17.4167C3.16675 15.737 3.83401 14.1261 5.02174 12.9384C6.20947 11.7507 7.82038 11.0834 9.50008 11.0834C11.1798 11.0834 12.7907 11.7507 13.9784 12.9384C15.1662 14.1261 15.8334 15.737 15.8334 17.4167H3.16675ZM10.2917 12.7325V15.8334H13.9801C13.6971 15.0349 13.206 14.3265 12.5576 13.7814C11.9092 13.2362 11.127 12.8741 10.2917 12.7325ZM8.70841 15.8334V12.7325C7.8732 12.8741 7.09097 13.2362 6.44255 13.7814C5.79412 14.3265 5.30304 15.0349 5.02004 15.8334H8.70841ZM9.50008 10.2917C6.87571 10.2917 4.75008 8.16612 4.75008 5.54175C4.75008 2.91737 6.87571 0.791748 9.50008 0.791748C12.1245 0.791748 14.2501 2.91737 14.2501 5.54175C14.2501 8.16612 12.1245 10.2917 9.50008 10.2917ZM9.50008 8.70842C11.2497 8.70842 12.6667 7.29133 12.6667 5.54175C12.6667 3.79216 11.2497 2.37508 9.50008 2.37508C7.7505 2.37508 6.33341 3.79216 6.33341 5.54175C6.33341 7.29133 7.7505 8.70842 9.50008 8.70842Z" fill="white"/>
</g>
<defs>
<clipPath id="clip0_5216_268">
<rect width="19" height="19" fill="white"/>
</clipPath>
</defs>
</svg>
