<svg width="58" height="37" viewBox="0 0 58 37" fill="none" xmlns="http://www.w3.org/2000/svg">
<path d="M55 0H3C1.34315 0 0 1.34315 0 3V34C0 35.6569 1.34315 37 3 37H55C56.6569 37 58 35.6569 58 34V3C58 1.34315 56.6569 0 55 0Z" fill="white"/>
<path d="M21.8021 25.8061L24.2828 11.3198H28.2506L25.7682 25.8061H21.8021ZM40.1026 11.6321C39.3167 11.3386 38.0848 11.0237 36.5466 11.0237C32.6261 11.0237 29.8644 12.9884 29.8409 15.8043C29.8187 17.8859 31.8125 19.0471 33.3174 19.7401C34.8619 20.4501 35.381 20.9029 35.3737 21.537C35.364 22.508 34.1404 22.9516 33 22.9516C31.4119 22.9516 30.5682 22.732 29.2652 22.1912L28.7539 21.961L28.197 25.2039C29.1238 25.6083 30.8375 25.9586 32.6168 25.9767C36.7876 25.9767 39.495 24.0345 39.5259 21.0274C39.5407 19.3795 38.4837 18.1255 36.1945 17.0915C34.8078 16.4215 33.9584 15.9742 33.9674 15.2957C33.9674 14.6936 34.6863 14.0496 36.2396 14.0496C37.5371 14.0296 38.4771 14.3112 39.2094 14.6046L39.5649 14.7719L40.1026 11.6321ZM50.3129 11.3196H47.2469C46.2971 11.3196 45.5863 11.5776 45.1692 12.5209L39.2767 25.7965H43.4431C43.4431 25.7965 44.1243 24.0114 44.2783 23.6196C44.7338 23.6196 48.7811 23.6258 49.3599 23.6258C49.4786 24.1329 49.8425 25.7965 49.8425 25.7965H53.5243L50.3129 11.3192V11.3196ZM45.4484 20.674C45.7765 19.8393 47.0293 16.6244 47.0293 16.6244C47.0058 16.6631 47.3549 15.7857 47.5553 15.2418L47.8234 16.4909C47.8234 16.4909 48.5833 19.9488 48.742 20.674H45.4484ZM18.4338 11.3196L14.5493 21.1986L14.1354 19.191C13.4122 16.8768 11.1591 14.3695 8.64038 13.1143L12.1922 25.7831L16.3902 25.7783L22.6367 11.3195H18.4338" fill="#0E4595"/>
<path d="M10.9246 11.3189H4.52671L4.47607 11.6203C9.45352 12.8194 12.747 15.7172 14.1145 19.1986L12.7232 12.5416C12.483 11.6244 11.7865 11.3506 10.9248 11.3186" fill="#F2AE14"/>
</svg>
