<svg width="19" height="19" viewBox="0 0 19 19" fill="none" xmlns="http://www.w3.org/2000/svg">
<g clip-path="url(#clip0_9_264)">
<path d="M3.16659 12.6667V3.16671H1.58325V1.58337H3.95825C4.16821 1.58337 4.36958 1.66678 4.51804 1.81525C4.66651 1.96371 4.74992 2.16508 4.74992 2.37504V11.875H14.5967L16.18 5.54171H6.33325V3.95837H17.1949C17.3153 3.95838 17.434 3.98581 17.5422 4.0386C17.6503 4.09138 17.745 4.16813 17.819 4.263C17.893 4.35787 17.9445 4.46836 17.9694 4.58609C17.9943 4.70382 17.9921 4.82568 17.9628 4.94242L15.9837 12.8591C15.9408 13.0303 15.8419 13.1822 15.7028 13.2908C15.5637 13.3994 15.3922 13.4584 15.2158 13.4584H3.95825C3.74829 13.4584 3.54693 13.375 3.39846 13.2265C3.24999 13.078 3.16659 12.8767 3.16659 12.6667ZM4.74992 18.2084C4.32999 18.2084 3.92727 18.0416 3.63033 17.7446C3.3334 17.4477 3.16659 17.045 3.16659 16.625C3.16659 16.2051 3.3334 15.8024 3.63033 15.5055C3.92727 15.2085 4.32999 15.0417 4.74992 15.0417C5.16984 15.0417 5.57257 15.2085 5.8695 15.5055C6.16644 15.8024 6.33325 16.2051 6.33325 16.625C6.33325 17.045 6.16644 17.4477 5.8695 17.7446C5.57257 18.0416 5.16984 18.2084 4.74992 18.2084ZM14.2499 18.2084C13.83 18.2084 13.4273 18.0416 13.1303 17.7446C12.8334 17.4477 12.6666 17.045 12.6666 16.625C12.6666 16.2051 12.8334 15.8024 13.1303 15.5055C13.4273 15.2085 13.83 15.0417 14.2499 15.0417C14.6698 15.0417 15.0726 15.2085 15.3695 15.5055C15.6664 15.8024 15.8333 16.2051 15.8333 16.625C15.8333 17.045 15.6664 17.4477 15.3695 17.7446C15.0726 18.0416 14.6698 18.2084 14.2499 18.2084Z" fill="white"/>
</g>
<defs>
<clipPath id="clip0_9_264">
<rect width="19" height="19" fill="white"/>
</clipPath>
</defs>
</svg>
